<svg id="Layer_5" enable-background="new 0 0 64 64" height="512" viewBox="0 0 64 64" width="512" xmlns="http://www.w3.org/2000/svg" xmlns:xlink="http://www.w3.org/1999/xlink"><linearGradient id="SVGID_1_" gradientUnits="userSpaceOnUse" x1="32" x2="32" y1="63" y2="1"><stop offset="0" stop-color="#9f2fff"/><stop offset="1" stop-color="#0bb1d3"/></linearGradient><path d="m29 41h6v-2h2v-6h-2v-2h-6v2h-2v6h2zm0-6h2v-2h2v2h2v2h-2v2h-2v-2h-2zm30-21.303-4.465-6.697h-3.535v-4h-2v4h-2v-4h-2v4h-2v-2h-2v2h-2v-6h-2v6h-2v-4h-2v4h-2v-6h-2v6h-4v12h-2v-6h-2v6h-2v-4h-2v-6h-2v6h-2v-4h-2v4h-2v4h-2v24h-1.535l-4.465 6.697v13.303h62v-13.303l-4-6zm-34 35.303h6v12h-6zm-2 12h-2v-12h2zm10-12h6v12h-6zm8 0h2v12h-2zm-22-2v14h-2v-18h6v2h18v-2h6v18h-2v-14zm4-6h-6v-2h6zm16-12v14h-14v-14zm2 10h6v2h-6zm8 6h8.465l2.667 4h-11.132zm4.465-36 2.667 4h-29.132v-4zm-26.465 6h30v28h-8v-6h-8v-10h-12v-8h-2zm-16 2h6v2h-6zm-2 4h18v6h-4v10h-8v6h-6zm-2.465 24h8.465v4h-11.132zm-3.535 6h12v10h-2v-8h-8v8h-2zm8 10h-4v-6h4zm46 0h-4v-6h4zm2 0v-8h-8v8h-2v-10h12v10zm-46-38v2h-2v-2zm8 2h-2v-2h2zm-4 0h-2v-2h2zm8 0h-2v-2h2zm-14 2h2v2h-2zm10 2h-2v-2h2zm-4 0h-2v-2h2zm-6 2h2v2h-2zm6 2h-2v-2h2zm4 0h-2v-2h2zm-10 2h2v2h-2zm0 4h2v2h-2zm44-22h-24v8h24zm-2 6h-20v-4h20zm-10 12h12v-8h-12zm2-6h8v4h-8z" fill="url(#SVGID_1_)"/></svg>